The_Talk_Cote_De_Pablo_720p_20110404_TTL.avi
Format                           : AVI
Format/Info                      : Audio Video Interleave
File size                        : 314 MiB
Duration                         : 9mn 30s
Overall bit rate                 : 4 617 Kbps

Video
ID                               : 0
Format                           : MPEG-4 Visual
Format profile                   : Simple@L3
Format settings, BVOP            : No
Format settings, QPel            : No
Format settings, GMC             : No warppoints
Format settings, Matrix          : Default (H.263)
Codec ID                         : XVID
Codec ID/Hint                    : XviD
Duration                         : 9mn 30s
Bit rate                         : 4 492 Kbps
Width                            : 1 280 pixels
Height                           : 720 pixels
Display aspect ratio             : 16:9
Frame rate                       : 29.970 fps
Color space                      : YUV
Chroma subsampling               : 4:2:0
Bit depth                        : 8 bits
Scan type                        : Progressive
Bits/(Pixel*Frame)               : 0.163
Stream size                      : 305 MiB (97%)
Writing library                  : XviD 1.1.2 (UTC 2006-11-01)

Audio
ID                               : 1
Format                           : MPEG Audio
Format version                   : Version 1
Format profile                   : Layer 3
Mode                             : Joint stereo
Mode extension                   : MS Stereo
Codec ID                         : 55
Codec ID/Hint                    : MP3
Duration                         : 9mn 29s
Bit rate mode                    : Constant
Bit rate                         : 112 Kbps
Channel(s)                       : 2 channels
Sampling rate                    : 48.0 KHz
Bit depth                        : 16 bits
Stream size                      : 7.60 MiB (2%)
Alignment                        : Aligned on interleaves
Interleave, duration             : 24 ms (0.72 video frame)

